<svg xmlns="http://www.w3.org/2000/svg" xmlns:xlink="http://www.w3.org/1999/xlink" contentStyleType="text/css" data-diagram-type="SEQUENCE" height="1130px" preserveAspectRatio="none" style="width:1288px;height:1130px;background:#FFFFFF;" version="1.1" viewBox="0 0 1288 1130" width="1288px" zoomAndPan="magnify"><defs/><g><rect fill="none" height="148.4688" style="stroke:#000000;stroke-width:1.5;" width="936.8984" x="345.042" y="389.625"/><rect fill="none" height="234.0625" style="stroke:#000000;stroke-width:1.5;" width="1132.1807" x="10" y="552.0938"/><g><title>User</title><rect fill="#000000" fill-opacity="0.00000" height="967.9219" width="8" x="34.9551" y="81.2969"/><line style="stroke:#181818;stroke-width:0.5;stroke-dasharray:5,5;" x1="38" x2="38" y1="81.2969" y2="1049.2188"/></g><g><title>Browser .UI.</title><rect fill="#000000" fill-opacity="0.00000" height="967.9219" width="8" x="401.4365" y="81.2969"/><line style="stroke:#181818;stroke-width:0.5;stroke-dasharray:5,5;" x1="405.042" x2="405.042" y1="81.2969" y2="1049.2188"/></g><g><title>React App .State.Logic.</title><rect fill="#000000" fill-opacity="0.00000" height="967.9219" width="8" x="714.5215" y="81.2969"/><line style="stroke:#181818;stroke-width:0.5;stroke-dasharray:5,5;" x1="717.5742" x2="717.5742" y1="81.2969" y2="1049.2188"/></g><g><title>AI Model .Backend.API.</title><rect fill="#000000" fill-opacity="0.00000" height="967.9219" width="8" x="1039.7852" y="81.2969"/><line style="stroke:#181818;stroke-width:0.5;stroke-dasharray:5,5;" x1="1043.3896" x2="1043.3896" y1="81.2969" y2="1049.2188"/></g><g><title>PlantUML Server</title><rect fill="#000000" fill-opacity="0.00000" height="967.9219" width="8" x="1203.0605" y="81.2969"/><line style="stroke:#181818;stroke-width:0.5;stroke-dasharray:5,5;" x1="1206.1807" x2="1206.1807" y1="81.2969" y2="1049.2188"/></g><g class="participant participant-head" data-participant="User"><text fill="#000000" font-family="sans-serif" font-size="14" lengthAdjust="spacing" textLength="31.9102" x="20" y="77.9951">User</text><ellipse cx="38.9551" cy="13.5" fill="#E2E2F0" rx="8" ry="8" style="stroke:#181818;stroke-width:0.5;"/><path d="M38.9551,21.5 L38.9551,48.5 M25.9551,29.5 L51.9551,29.5 M38.9551,48.5 L25.9551,63.5 M38.9551,48.5 L51.9551,63.5" fill="none" style="stroke:#181818;stroke-width:0.5;"/></g><g class="participant participant-tail" data-participant="User"><text fill="#000000" font-family="sans-serif" font-size="14" lengthAdjust="spacing" textLength="31.9102" x="20" y="1061.2139">User</text><ellipse cx="38.9551" cy="1073.0156" fill="#E2E2F0" rx="8" ry="8" style="stroke:#181818;stroke-width:0.5;"/><path d="M38.9551,1081.0156 L38.9551,1108.0156 M25.9551,1089.0156 L51.9551,1089.0156 M38.9551,1108.0156 L25.9551,1123.0156 M38.9551,1108.0156 L51.9551,1123.0156" fill="none" style="stroke:#181818;stroke-width:0.5;"/></g><g class="participant participant-head" data-participant="UI"><rect fill="#E2E2F0" height="30.2969" rx="2.5" ry="2.5" style="stroke:#181818;stroke-width:0.5;" width="100.7891" x="355.042" y="50"/><text fill="#000000" font-family="sans-serif" font-size="14" lengthAdjust="spacing" textLength="86.7891" x="362.042" y="69.9951">Browser (UI)</text></g><g class="participant participant-tail" data-participant="UI"><rect fill="#E2E2F0" height="30.2969" rx="2.5" ry="2.5" style="stroke:#181818;stroke-width:0.5;" width="100.7891" x="355.042" y="1048.2188"/><text fill="#000000" font-family="sans-serif" font-size="14" lengthAdjust="spacing" textLength="86.7891" x="362.042" y="1068.2139">Browser (UI)</text></g><g class="participant participant-head" data-participant="App"><rect fill="#E2E2F0" height="30.2969" rx="2.5" ry="2.5" style="stroke:#181818;stroke-width:0.5;" width="179.8945" x="628.5742" y="50"/><text fill="#000000" font-family="sans-serif" font-size="14" lengthAdjust="spacing" textLength="165.8945" x="635.5742" y="69.9951">React App (State/Logic)</text></g><g class="participant participant-tail" data-participant="App"><rect fill="#E2E2F0" height="30.2969" rx="2.5" ry="2.5" style="stroke:#181818;stroke-width:0.5;" width="179.8945" x="628.5742" y="1048.2188"/><text fill="#000000" font-family="sans-serif" font-size="14" lengthAdjust="spacing" textLength="165.8945" x="635.5742" y="1068.2139">React App (State/Logic)</text></g><g class="participant participant-head" data-participant="AI"><rect fill="#E2E2F0" height="30.2969" rx="2.5" ry="2.5" style="stroke:#181818;stroke-width:0.5;" width="176.791" x="955.3896" y="50"/><text fill="#000000" font-family="sans-serif" font-size="14" lengthAdjust="spacing" textLength="162.791" x="962.3896" y="69.9951">AI Model (Backend/API)</text></g><g class="participant participant-tail" data-participant="AI"><rect fill="#E2E2F0" height="30.2969" rx="2.5" ry="2.5" style="stroke:#181818;stroke-width:0.5;" width="176.791" x="955.3896" y="1048.2188"/><text fill="#000000" font-family="sans-serif" font-size="14" lengthAdjust="spacing" textLength="162.791" x="962.3896" y="1068.2139">AI Model (Backend/API)</text></g><g class="participant participant-head" data-participant="PlantUML"><rect fill="#E2E2F0" height="30.2969" rx="2.5" ry="2.5" style="stroke:#181818;stroke-width:0.5;" width="129.7598" x="1142.1807" y="50"/><text fill="#000000" font-family="sans-serif" font-size="14" lengthAdjust="spacing" textLength="115.7598" x="1149.1807" y="69.9951">PlantUML Server</text></g><g class="participant participant-tail" data-participant="PlantUML"><rect fill="#E2E2F0" height="30.2969" rx="2.5" ry="2.5" style="stroke:#181818;stroke-width:0.5;" width="129.7598" x="1142.1807" y="1048.2188"/><text fill="#000000" font-family="sans-serif" font-size="14" lengthAdjust="spacing" textLength="115.7598" x="1149.1807" y="1068.2139">PlantUML Server</text></g><g class="message" data-participant-1="User" data-participant-2="UI"><polygon fill="#181818" points="393.4365,108.4297,403.4365,112.4297,393.4365,116.4297,397.4365,112.4297" style="stroke:#181818;stroke-width:1;"/><line style="stroke:#181818;stroke-width:1;" x1="38.9551" x2="399.4365" y1="112.4297" y2="112.4297"/><text fill="#000000" font-family="sans-serif" font-size="13" lengthAdjust="spacing" textLength="70.2622" x="45.9551" y="107.3638">Upload ZIP</text></g><g class="message" data-participant-1="UI" data-participant-2="App"><polygon fill="#181818" points="706.5215,137.5625,716.5215,141.5625,706.5215,145.5625,710.5215,141.5625" style="stroke:#181818;stroke-width:1;"/><line style="stroke:#181818;stroke-width:1;" x1="405.4365" x2="712.5215" y1="141.5625" y2="141.5625"/><text fill="#000000" font-family="sans-serif" font-size="13" lengthAdjust="spacing" textLength="74.5405" x="412.4365" y="136.4966">Process ZIP</text></g><g class="message" data-participant-1="App" data-participant-2="UI"><polygon fill="#181818" points="416.4365,166.6953,406.4365,170.6953,416.4365,174.6953,412.4365,170.6953" style="stroke:#181818;stroke-width:1;"/><line style="stroke:#181818;stroke-width:1;" x1="410.4365" x2="717.5215" y1="170.6953" y2="170.6953"/><text fill="#000000" font-family="sans-serif" font-size="13" lengthAdjust="spacing" textLength="108.1641" x="422.4365" y="165.6294">Display File Tree</text></g><g class="message" data-participant-1="User" data-participant-2="UI"><polygon fill="#181818" points="393.4365,195.8281,403.4365,199.8281,393.4365,203.8281,397.4365,199.8281" style="stroke:#181818;stroke-width:1;"/><line style="stroke:#181818;stroke-width:1;" x1="38.9551" x2="399.4365" y1="199.8281" y2="199.8281"/><text fill="#000000" font-family="sans-serif" font-size="13" lengthAdjust="spacing" textLength="147.418" x="45.9551" y="194.7622">Click "Analyze Project"</text></g><g class="message" data-participant-1="UI" data-participant-2="App"><polygon fill="#181818" points="706.5215,224.9609,716.5215,228.9609,706.5215,232.9609,710.5215,228.9609" style="stroke:#181818;stroke-width:1;"/><line style="stroke:#181818;stroke-width:1;" x1="405.4365" x2="712.5215" y1="228.9609" y2="228.9609"/><text fill="#000000" font-family="sans-serif" font-size="13" lengthAdjust="spacing" textLength="104.438" x="412.4365" y="223.895">Trigger Analysis</text></g><g class="message" data-participant-1="App" data-participant-2="AI"><polygon fill="#181818" points="1031.7852,254.0938,1041.7852,258.0938,1031.7852,262.0938,1035.7852,258.0938" style="stroke:#181818;stroke-width:1;"/><line style="stroke:#181818;stroke-width:1;" x1="718.5215" x2="1037.7852" y1="258.0938" y2="258.0938"/><text fill="#000000" font-family="sans-serif" font-size="13" lengthAdjust="spacing" textLength="115.4702" x="725.5215" y="253.0278">Send Project Files</text></g><g class="message" data-participant-1="AI" data-participant-2="App"><polygon fill="#181818" points="729.5215,283.2266,719.5215,287.2266,729.5215,291.2266,725.5215,287.2266" style="stroke:#181818;stroke-width:1;"/><line style="stroke:#181818;stroke-width:1;stroke-dasharray:2,2;" x1="723.5215" x2="1042.7852" y1="287.2266" y2="287.2266"/><text fill="#000000" font-family="sans-serif" font-size="13" lengthAdjust="spacing" textLength="213.2749" x="735.5215" y="282.1606">Return Diagram Code &amp; Analysis</text></g><g class="message" data-participant-1="App" data-participant-2="UI"><polygon fill="#181818" points="416.4365,312.3594,406.4365,316.3594,416.4365,320.3594,412.4365,316.3594" style="stroke:#181818;stroke-width:1;"/><line style="stroke:#181818;stroke-width:1;" x1="410.4365" x2="717.5215" y1="316.3594" y2="316.3594"/><text fill="#000000" font-family="sans-serif" font-size="13" lengthAdjust="spacing" textLength="217.2422" x="422.4365" y="311.2935">Display Diagram Code &amp; Analysis</text></g><g class="message" data-participant-1="User" data-participant-2="UI"><polygon fill="#181818" points="393.4365,341.4922,403.4365,345.4922,393.4365,349.4922,397.4365,345.4922" style="stroke:#181818;stroke-width:1;"/><line style="stroke:#181818;stroke-width:1;" x1="38.9551" x2="399.4365" y1="345.4922" y2="345.4922"/><text fill="#000000" font-family="sans-serif" font-size="13" lengthAdjust="spacing" textLength="153.8799" x="45.9551" y="340.4263">Click "Render Diagram"</text></g><g class="message" data-participant-1="UI" data-participant-2="App"><polygon fill="#181818" points="706.5215,370.625,716.5215,374.625,706.5215,378.625,710.5215,374.625" style="stroke:#181818;stroke-width:1;"/><line style="stroke:#181818;stroke-width:1;" x1="405.4365" x2="712.5215" y1="374.625" y2="374.625"/><text fill="#000000" font-family="sans-serif" font-size="13" lengthAdjust="spacing" textLength="97.7412" x="412.4365" y="369.5591">Trigger Render</text></g><path d="M345.042,389.625 L409.4849,389.625 L409.4849,396.7578 L399.4849,406.7578 L345.042,406.7578 L345.042,389.625" fill="#EEEEEE" style="stroke:#000000;stroke-width:1.5;"/><rect fill="none" height="148.4688" style="stroke:#000000;stroke-width:1.5;" width="936.8984" x="345.042" y="389.625"/><text fill="#000000" font-family="sans-serif" font-size="13" font-weight="bold" lengthAdjust="spacing" textLength="19.4429" x="360.042" y="402.6919">alt</text><text fill="#000000" font-family="sans-serif" font-size="11" font-weight="bold" lengthAdjust="spacing" textLength="230.3931" x="424.4849" y="401.8354">[Diagramming Language is Mermaid]</text><g class="message" data-participant-1="App" data-participant-2="UI"><polygon fill="#181818" points="416.4365,423.8906,406.4365,427.8906,416.4365,431.8906,412.4365,427.8906" style="stroke:#181818;stroke-width:1;"/><line style="stroke:#181818;stroke-width:1;" x1="410.4365" x2="717.5215" y1="427.8906" y2="427.8906"/><text fill="#000000" font-family="sans-serif" font-size="13" lengthAdjust="spacing" textLength="193.2544" x="422.4365" y="422.8247">Render using Mermaid library</text></g><line style="stroke:#000000;stroke-width:1;stroke-dasharray:2,2;" x1="345.042" x2="1281.9404" y1="436.8906" y2="436.8906"/><text fill="#000000" font-family="sans-serif" font-size="11" font-weight="bold" lengthAdjust="spacing" textLength="235.2646" x="350.042" y="447.1011">[Diagramming Language is PlantUML]</text><g class="message" data-participant-1="App" data-participant-2="PlantUML"><polygon fill="#181818" points="1195.0605,467.8281,1205.0605,471.8281,1195.0605,475.8281,1199.0605,471.8281" style="stroke:#181818;stroke-width:1;"/><line style="stroke:#181818;stroke-width:1;" x1="718.5215" x2="1201.0605" y1="471.8281" y2="471.8281"/><text fill="#000000" font-family="sans-serif" font-size="13" lengthAdjust="spacing" textLength="200.4336" x="725.5215" y="466.7622">Send Diagram Code (Encoded)</text></g><g class="message" data-participant-1="PlantUML" data-participant-2="App"><polygon fill="#181818" points="729.5215,496.9609,719.5215,500.9609,729.5215,504.9609,725.5215,500.9609" style="stroke:#181818;stroke-width:1;"/><line style="stroke:#181818;stroke-width:1;stroke-dasharray:2,2;" x1="723.5215" x2="1206.0605" y1="500.9609" y2="500.9609"/><text fill="#000000" font-family="sans-serif" font-size="13" lengthAdjust="spacing" textLength="107.3198" x="735.5215" y="495.895">Return SVG/PNG</text></g><g class="message" data-participant-1="App" data-participant-2="UI"><polygon fill="#181818" points="416.4365,526.0938,406.4365,530.0938,416.4365,534.0938,412.4365,530.0938" style="stroke:#181818;stroke-width:1;"/><line style="stroke:#181818;stroke-width:1;" x1="410.4365" x2="717.5215" y1="530.0938" y2="530.0938"/><text fill="#000000" font-family="sans-serif" font-size="13" lengthAdjust="spacing" textLength="111.2871" x="422.4365" y="525.0278">Display SVG/PNG</text></g><path d="M10,552.0938 L79.4512,552.0938 L79.4512,559.2266 L69.4512,569.2266 L10,569.2266 L10,552.0938" fill="#EEEEEE" style="stroke:#000000;stroke-width:1.5;"/><rect fill="none" height="234.0625" style="stroke:#000000;stroke-width:1.5;" width="1132.1807" x="10" y="552.0938"/><text fill="#000000" font-family="sans-serif" font-size="13" font-weight="bold" lengthAdjust="spacing" textLength="24.4512" x="25" y="565.1606">opt</text><text fill="#000000" font-family="sans-serif" font-size="11" font-weight="bold" lengthAdjust="spacing" textLength="155.2515" x="94.4512" y="564.3042">[Rendering Error Occurs]</text><g class="message" data-participant-1="App" data-participant-2="UI"><polygon fill="#181818" points="416.4365,586.3594,406.4365,590.3594,416.4365,594.3594,412.4365,590.3594" style="stroke:#181818;stroke-width:1;"/><line style="stroke:#181818;stroke-width:1;" x1="410.4365" x2="717.5215" y1="590.3594" y2="590.3594"/><text fill="#000000" font-family="sans-serif" font-size="13" lengthAdjust="spacing" textLength="145.3613" x="422.4365" y="585.2935">Display Error Message</text></g><g class="message" data-participant-1="User" data-participant-2="UI"><polygon fill="#181818" points="393.4365,615.4922,403.4365,619.4922,393.4365,623.4922,397.4365,619.4922" style="stroke:#181818;stroke-width:1;"/><line style="stroke:#181818;stroke-width:1;" x1="38.9551" x2="399.4365" y1="619.4922" y2="619.4922"/><text fill="#000000" font-family="sans-serif" font-size="13" lengthAdjust="spacing" textLength="114.4229" x="45.9551" y="614.4263">Click "Fix with AI"</text></g><g class="message" data-participant-1="UI" data-participant-2="App"><polygon fill="#181818" points="706.5215,644.625,716.5215,648.625,706.5215,652.625,710.5215,648.625" style="stroke:#181818;stroke-width:1;"/><line style="stroke:#181818;stroke-width:1;" x1="405.4365" x2="712.5215" y1="648.625" y2="648.625"/><text fill="#000000" font-family="sans-serif" font-size="13" lengthAdjust="spacing" textLength="142.1494" x="412.4365" y="643.5591">Request AI Correction</text></g><g class="message" data-participant-1="App" data-participant-2="AI"><polygon fill="#181818" points="1031.7852,673.7578,1041.7852,677.7578,1031.7852,681.7578,1035.7852,677.7578" style="stroke:#181818;stroke-width:1;"/><line style="stroke:#181818;stroke-width:1;" x1="718.5215" x2="1037.7852" y1="677.7578" y2="677.7578"/><text fill="#000000" font-family="sans-serif" font-size="13" lengthAdjust="spacing" textLength="120.7578" x="725.5215" y="672.6919">Send Code &amp; Error</text></g><g class="message" data-participant-1="AI" data-participant-2="App"><polygon fill="#181818" points="729.5215,702.8906,719.5215,706.8906,729.5215,710.8906,725.5215,706.8906" style="stroke:#181818;stroke-width:1;"/><line style="stroke:#181818;stroke-width:1;stroke-dasharray:2,2;" x1="723.5215" x2="1042.7852" y1="706.8906" y2="706.8906"/><text fill="#000000" font-family="sans-serif" font-size="13" lengthAdjust="spacing" textLength="149.7095" x="735.5215" y="701.8247">Return Corrected Code</text></g><g class="message" data-participant-1="App" data-participant-2="UI"><polygon fill="#181818" points="416.4365,732.0234,406.4365,736.0234,416.4365,740.0234,412.4365,736.0234" style="stroke:#181818;stroke-width:1;"/><line style="stroke:#181818;stroke-width:1;" x1="410.4365" x2="717.5215" y1="736.0234" y2="736.0234"/><text fill="#000000" font-family="sans-serif" font-size="13" lengthAdjust="spacing" textLength="144.4409" x="422.4365" y="730.9575">Update Diagram Code</text></g><g class="message" data-participant-1="App" data-participant-2="App"><line style="stroke:#181818;stroke-width:1;" x1="718.5215" x2="760.5215" y1="765.1563" y2="765.1563"/><line style="stroke:#181818;stroke-width:1;" x1="760.5215" x2="760.5215" y1="765.1563" y2="778.1563"/><line style="stroke:#181818;stroke-width:1;" x1="719.5215" x2="760.5215" y1="778.1563" y2="778.1563"/><polygon fill="#181818" points="729.5215,774.1563,719.5215,778.1563,729.5215,782.1563,725.5215,778.1563" style="stroke:#181818;stroke-width:1;"/><text fill="#000000" font-family="sans-serif" font-size="13" lengthAdjust="spacing" textLength="115.7749" x="725.5215" y="760.0903">Trigger Re-render</text></g><g class="message" data-participant-1="User" data-participant-2="UI"><polygon fill="#181818" points="393.4365,810.2891,403.4365,814.2891,393.4365,818.2891,397.4365,814.2891" style="stroke:#181818;stroke-width:1;"/><line style="stroke:#181818;stroke-width:1;" x1="38.9551" x2="399.4365" y1="814.2891" y2="814.2891"/><text fill="#000000" font-family="sans-serif" font-size="13" lengthAdjust="spacing" textLength="313.187" x="45.9551" y="809.2231">Click Export Button (PNG/SVG/Source/Docs/etc.)</text></g><g class="message" data-participant-1="UI" data-participant-2="App"><polygon fill="#181818" points="706.5215,839.4219,716.5215,843.4219,706.5215,847.4219,710.5215,843.4219" style="stroke:#181818;stroke-width:1;"/><line style="stroke:#181818;stroke-width:1;" x1="405.4365" x2="712.5215" y1="843.4219" y2="843.4219"/><text fill="#000000" font-family="sans-serif" font-size="13" lengthAdjust="spacing" textLength="192.3975" x="412.4365" y="838.356">Trigger Download/Generation</text></g><g class="message" data-participant-1="App" data-participant-2="UI"><polygon fill="#181818" points="416.4365,868.5547,406.4365,872.5547,416.4365,876.5547,412.4365,872.5547" style="stroke:#181818;stroke-width:1;"/><line style="stroke:#181818;stroke-width:1;" x1="410.4365" x2="717.5215" y1="872.5547" y2="872.5547"/><text fill="#000000" font-family="sans-serif" font-size="13" lengthAdjust="spacing" textLength="289.085" x="422.4365" y="867.4888">Initiate File Download or Generation Process</text></g><g class="message" data-participant-1="User" data-participant-2="UI"><polygon fill="#181818" points="393.4365,897.6875,403.4365,901.6875,393.4365,905.6875,397.4365,901.6875" style="stroke:#181818;stroke-width:1;"/><line style="stroke:#181818;stroke-width:1;" x1="38.9551" x2="399.4365" y1="901.6875" y2="901.6875"/><text fill="#000000" font-family="sans-serif" font-size="13" lengthAdjust="spacing" textLength="100.3882" x="45.9551" y="896.6216">Click "Settings"</text></g><g class="message" data-participant-1="UI" data-participant-2="App"><polygon fill="#181818" points="706.5215,926.8203,716.5215,930.8203,706.5215,934.8203,710.5215,930.8203" style="stroke:#181818;stroke-width:1;"/><line style="stroke:#181818;stroke-width:1;" x1="405.4365" x2="712.5215" y1="930.8203" y2="930.8203"/><text fill="#000000" font-family="sans-serif" font-size="13" lengthAdjust="spacing" textLength="135.3066" x="412.4365" y="925.7544">Open Settings Modal</text></g><g class="message" data-participant-1="User" data-participant-2="UI"><polygon fill="#181818" points="393.4365,955.9531,403.4365,959.9531,393.4365,963.9531,397.4365,959.9531" style="stroke:#181818;stroke-width:1;"/><line style="stroke:#181818;stroke-width:1;" x1="38.9551" x2="399.4365" y1="959.9531" y2="959.9531"/><text fill="#000000" font-family="sans-serif" font-size="13" lengthAdjust="spacing" textLength="342.4814" x="45.9551" y="954.8872">Change Settings (Lang, Diagram Type/Lang, Theme)</text></g><g class="message" data-participant-1="UI" data-participant-2="App"><polygon fill="#181818" points="706.5215,985.0859,716.5215,989.0859,706.5215,993.0859,710.5215,989.0859" style="stroke:#181818;stroke-width:1;"/><line style="stroke:#181818;stroke-width:1;" x1="405.4365" x2="712.5215" y1="989.0859" y2="989.0859"/><text fill="#000000" font-family="sans-serif" font-size="13" lengthAdjust="spacing" textLength="143.0762" x="412.4365" y="984.02">Update Settings State</text></g><g class="message" data-participant-1="App" data-participant-2="App"><line style="stroke:#181818;stroke-width:1;" x1="718.5215" x2="760.5215" y1="1018.2188" y2="1018.2188"/><line style="stroke:#181818;stroke-width:1;" x1="760.5215" x2="760.5215" y1="1018.2188" y2="1031.2188"/><line style="stroke:#181818;stroke-width:1;" x1="719.5215" x2="760.5215" y1="1031.2188" y2="1031.2188"/><polygon fill="#181818" points="729.5215,1027.2188,719.5215,1031.2188,729.5215,1035.2188,725.5215,1031.2188" style="stroke:#181818;stroke-width:1;"/><text fill="#000000" font-family="sans-serif" font-size="13" lengthAdjust="spacing" textLength="311.2637" x="725.5215" y="1013.1528">Apply Settings (e.g., re-render with new theme)</text></g><!--SRC=[TLHDZzem4BtdLumuL47Q9VSzL8A5HKZGHK1wwCthZ8AxnavjfopzzHqx7oGGE82Ol7dpvlavZ3jj8BLeee8P9xWec78mcXbzfYB4wMey0cOXNVK1EsJSmRGe8DuxvZ1Pwrpm2alLFdYwWetEK48yO_mJLPPCjpNlz8PtA-adtQnXZ-Olce1fQb7aXSBpTr83Bv0MKhCCVgss4VsdgbVp0bkZELeRwhxImEV25f9Tu4r8X8D1lA5xbO9_abR5vEKVUfhVoDsentqm8i-f9u2iiCs0gIVOqs9DMvX2ZwctRTwXAuqY7Imtx0Ilv0XykwFgQNs47LI-e_bKhNk6XLUOA6BIDS2JK3cicSfBbYC82niq9oQo2EZJ5LNpbzOtr22GuiCmSubGMdp8s1vWXx8zwDgutghnGd7wpSQXeuNUURd_kKosFvPtKXl_ckSq88fquUeTlBw5CPJyTyvBOn_sLw0DnOas2QWXuz_45vo5Er8CHXMeu_mE_vHedO_8gpQ6iY6qwWwyPgS-vJ2qGWp4foR12dwdF2qokeqzDtl3RjBmRAf018C6Tbjy5Teuc9NEQGKnUPbuJ_UwD1oJkUOsGSSduy6mpVLP-IkQB56XOM7nhjQL4avujU5ADcWWnwyDpNKUZlmUdQF3jFsmlnT8qQWV-JSFapVTHmedNY6n3-jJQzhXKj3xB9GEHpnXVxlQuROvlFwYdh_qBIyTUfpaaoSmZTjLM1IUmGNw_m00]--></g></svg>